<svg width="35" height="35" viewBox="0 0 35 35" fill="none" xmlns="http://www.w3.org/2000/svg">
<path d="M17.5 35C27.165 35 35 27.165 35 17.5C35 7.83502 27.165 0 17.5 0C7.83502 0 0 7.83502 0 17.5C0 27.165 7.83502 35 17.5 35Z" fill="url(#paint0_linear_52_36)"/>
<path d="M6.51687 18.356C8.56262 17.2291 10.8462 16.2886 12.9799 15.3433C16.6507 13.795 20.336 12.2736 24.0586 10.8571C24.7828 10.6157 26.0842 10.3797 26.2118 11.453C26.1419 12.9723 25.8545 14.4827 25.6573 15.9931C25.1569 19.3146 24.5785 22.6247 24.0145 25.9353C23.8202 27.0381 22.4388 27.6089 21.5549 26.9032C19.4307 25.4684 17.2901 24.0475 15.1931 22.5794C14.5061 21.8814 15.1431 20.879 15.7566 20.3805C17.5062 18.6563 19.3616 17.1914 21.0198 15.3781C21.467 14.2981 20.1455 15.2083 19.7096 15.4872C17.3144 17.1378 14.9779 18.8891 12.4526 20.3397C11.1627 21.0497 9.65931 20.4429 8.37 20.0468C7.21399 19.5681 5.51998 19.0859 6.51675 18.3561L6.51687 18.356Z" fill="white"/>
<defs>
<linearGradient id="paint0_linear_52_36" x1="23.3348" y1="5.8345" x2="14.5848" y2="26.25" gradientUnits="userSpaceOnUse">
<stop stop-color="#37AEE2"/>
<stop offset="1" stop-color="#1E96C8"/>
</linearGradient>
</defs>
</svg>
