<svg width="171" height="37" viewBox="0 0 171 37" fill="none" xmlns="http://www.w3.org/2000/svg">
<path d="M27.3829 16.4901C26.92 16.9604 26.5655 17.528 26.3447 18.1523C26.1239 18.7767 26.0422 19.4426 26.1053 20.1026L26.0833 20.0804C26.1483 20.8572 26.0445 21.6389 25.7793 22.3712C25.5141 23.1033 25.094 23.7682 24.5481 24.3195C24.0021 24.8706 23.3437 25.295 22.6185 25.5627C21.8935 25.8304 21.1192 25.9352 20.3499 25.8696L20.3719 25.8918C19.4517 25.8054 18.5274 26.0075 17.7251 26.4709C16.9229 26.9342 16.2816 27.6361 15.8889 28.481C15.4962 29.3258 15.371 30.2723 15.5305 31.1916C15.6902 32.1108 16.1266 32.958 16.7804 33.6176C17.4343 34.2771 18.2736 34.7171 19.1841 34.8773C20.0947 35.0376 21.0319 34.9103 21.8682 34.5131C22.7045 34.1157 23.399 33.4677 23.8572 32.6572C24.3153 31.8466 24.5148 30.9132 24.4283 29.984L24.4515 30.0062C24.3865 29.2295 24.4902 28.4477 24.7554 27.7154C25.0206 26.9833 25.4409 26.3184 25.9867 25.7671C26.5327 25.216 27.1912 24.7916 27.9162 24.5239C28.6414 24.2562 29.4155 24.1513 30.1849 24.217L30.1617 24.1948C30.9133 24.263 31.67 24.1385 32.3615 23.8329C33.0528 23.5273 33.6567 23.0504 34.1169 22.4464C34.5771 21.8424 34.8791 21.1308 34.9944 20.3777C35.1098 19.6245 35.0351 18.8542 34.7771 18.1379C34.5191 17.4217 34.0862 16.7828 33.5187 16.2805C32.9511 15.7781 32.2671 15.4286 31.53 15.2643C30.793 15.1 30.0268 15.1262 29.3025 15.3404C28.5782 15.5548 27.9193 15.9502 27.3866 16.4901H27.3829Z" fill="#3F3C3D"/>
<path d="M18.3726 22.9847L18.3494 22.9625C19.0033 23.029 19.6636 22.948 20.2827 22.7253C20.9017 22.5025 21.4641 22.1437 21.9289 21.6747C22.3937 21.2057 22.7496 20.6381 22.9706 20.0132C23.1917 19.3882 23.2724 18.7216 23.207 18.0613L23.2303 18.0835C23.1653 17.3066 23.2691 16.5249 23.5341 15.7927C23.7993 15.0606 24.2196 14.3957 24.7655 13.8444C25.3114 13.2932 25.9699 12.8688 26.695 12.6012C27.4201 12.3334 28.1943 12.2286 28.9636 12.2942L28.9404 12.272C29.8608 12.3593 30.7853 12.1578 31.588 11.6949C32.3908 11.2321 33.0326 10.5305 33.4259 9.68583C33.8192 8.84117 33.9449 7.89455 33.7858 6.97509C33.6268 6.05563 33.1908 5.20811 32.537 4.5481C31.8835 3.88811 31.0441 3.44776 30.1335 3.28715C29.2229 3.12654 28.2855 3.25346 27.4489 3.65062C26.6124 4.04776 25.9176 4.69582 25.4592 5.50638C25.0008 6.31692 24.8013 7.25052 24.8877 8.17981L24.8657 8.15638C24.9308 8.93324 24.8273 9.7151 24.5622 10.4474C24.2972 11.1796 23.8769 11.8446 23.331 12.396C22.785 12.9471 22.1264 13.3715 21.4013 13.6392C20.676 13.9068 19.9017 14.0114 19.1324 13.9456L19.1543 13.9691C18.5005 13.9026 17.8401 13.9836 17.2211 14.2064C16.602 14.429 16.0397 14.7879 15.5748 15.2569C15.11 15.726 14.7541 16.2935 14.5331 16.9185C14.3121 17.5434 14.2314 18.21 14.2967 18.8703L14.2747 18.8481C14.3395 19.6249 14.2355 20.4066 13.9704 21.1387C13.7051 21.8707 13.2849 22.5356 12.739 23.0867C12.1931 23.6379 11.5347 24.0622 10.8097 24.3301C10.0847 24.5978 9.31062 24.7028 8.54135 24.6374L8.56334 24.6596C7.64302 24.5723 6.71843 24.7738 5.9157 25.2367C5.11297 25.6996 4.47117 26.4011 4.07786 27.2458C3.68454 28.0905 3.55883 29.0371 3.71789 29.9565C3.87696 30.876 4.31306 31.7235 4.96668 32.3835C5.62032 33.0436 6.45966 33.4839 7.37025 33.6444C8.28083 33.805 9.21832 33.6781 10.0548 33.281C10.8913 32.8838 11.5862 32.2359 12.0445 31.4253C12.5029 30.6146 12.7025 29.6811 12.616 28.7518L12.6392 28.774C12.5743 27.9971 12.6781 27.2154 12.9433 26.4832C13.2083 25.7511 13.6286 25.0862 14.1745 24.5349C14.7204 23.9837 15.3789 23.5594 16.1039 23.2917C16.8291 23.024 17.6033 22.9191 18.3726 22.9847Z" fill="#3F3C3D"/>
<path d="M10.1866 20.5079C10.6495 20.0377 11.0039 19.4702 11.2246 18.8457C11.4452 18.2213 11.5266 17.5553 11.4629 16.8955L11.4861 16.9177C11.4212 16.1407 11.5249 15.3586 11.7902 14.6263C12.0555 13.8939 12.476 13.2289 13.0222 12.6776C13.5684 12.1263 14.2272 11.7021 14.9526 11.4345C15.678 11.1669 16.4525 11.0624 17.222 11.1284L17.1988 11.1062C18.1188 11.1932 19.043 10.9916 19.8454 10.5288C20.6477 10.066 21.2891 9.36458 21.6823 8.52018C22.0753 7.67576 22.2009 6.72949 22.0419 5.81037C21.8828 4.89125 21.4468 4.04405 20.7934 3.38429C20.1401 2.72453 19.301 2.28433 18.3908 2.12373C17.4806 1.96311 16.5434 2.08992 15.7072 2.48683C14.8709 2.88375 14.1762 3.53146 13.7179 4.34163C13.2595 5.15181 13.0598 6.08502 13.1461 7.01399L13.1241 6.99179C13.1891 7.76861 13.0852 8.55038 12.8201 9.28254C12.5549 10.0147 12.1348 10.6796 11.5888 11.2308C11.0429 11.7821 10.3844 12.2064 9.65933 12.4741C8.93424 12.7418 8.16002 12.8467 7.3907 12.7811L7.41269 12.8033C6.66099 12.7352 5.90442 12.8599 5.21312 13.1656C4.52181 13.4714 3.91812 13.9484 3.458 14.5525C2.99787 15.1565 2.6962 15.8681 2.58093 16.6212C2.46566 17.3744 2.54052 18.1447 2.79857 18.8608C3.05662 19.577 3.48953 20.2157 4.05717 20.7179C4.6248 21.2203 5.3088 21.5697 6.04579 21.734C6.78276 21.8981 7.54888 21.8718 8.27315 21.6576C8.99741 21.4433 9.65637 21.0478 10.189 20.5079H10.1866Z" fill="#3F3C3D"/>
<path d="M48.0229 8.20776H51.6506V26.0331H48.0229V8.20776Z" fill="#3F3C3D"/>
<path d="M53.705 19.9294C53.7 18.6485 54.0716 17.3947 54.7727 16.3271C55.4738 15.2595 56.4729 14.4261 57.6435 13.9324C58.8141 13.4385 60.1035 13.3067 61.3483 13.5535C62.5932 13.8003 63.7376 14.4145 64.6364 15.3185C65.5353 16.2224 66.1482 17.3755 66.3976 18.6315C66.647 19.8875 66.5216 21.19 66.0373 22.374C65.553 23.5579 64.7316 24.5702 63.6771 25.2824C62.6225 25.9946 61.3825 26.3748 60.1138 26.3748C59.2718 26.3846 58.4362 26.2246 57.656 25.9044C56.8757 25.5843 56.1666 25.1103 55.5699 24.5103C54.9731 23.9101 54.5009 23.1959 54.1808 22.4094C53.8605 21.6229 53.6988 20.7798 53.705 19.9294ZM62.895 19.9294C62.8799 19.3773 62.7039 18.8419 62.3891 18.3901C62.0742 17.9385 61.6345 17.5904 61.1249 17.3898C60.6152 17.189 60.0584 17.1443 59.5238 17.2615C58.9891 17.3787 58.5006 17.6522 58.1191 18.0482C57.7378 18.4441 57.4803 18.9449 57.3793 19.4878C57.2782 20.0306 57.3377 20.5915 57.5506 21.1004C57.7634 21.6092 58.1201 22.0434 58.5759 22.3486C59.0319 22.6539 59.5669 22.8167 60.1138 22.8167C60.4885 22.8268 60.8611 22.7583 61.2084 22.6158C61.5555 22.4732 61.8696 22.2596 62.1309 21.9884C62.3922 21.717 62.5951 21.394 62.7265 21.0397C62.858 20.6853 62.9154 20.3073 62.895 19.9294Z" fill="#3F3C3D"/>
<path d="M80.9809 13.8249V25.4182C80.9809 29.5203 77.8125 31.2544 74.5965 31.2544C73.4642 31.34 72.3303 31.109 71.3194 30.5869C70.3085 30.0647 69.4595 29.2715 68.8655 28.2944L71.9606 26.4875C72.2103 26.9969 72.6081 27.4171 73.1007 27.692C73.5934 27.9668 74.1575 28.0832 74.7174 28.0255C75.0753 28.0756 75.4397 28.0438 75.7838 27.9324C76.1278 27.821 76.4427 27.6329 76.705 27.3822C76.9674 27.1313 77.1705 26.8242 77.2995 26.4833C77.4283 26.1426 77.4796 25.7769 77.4497 25.4133V24.2971C77.0249 24.8219 76.4843 25.2389 75.871 25.5146C75.2577 25.7902 74.5891 25.9169 73.9186 25.8844C72.3231 25.8336 70.8099 25.158 69.6991 24.0004C68.5884 22.8429 67.9673 21.2943 67.9673 19.6826C67.9673 18.0709 68.5884 16.5223 69.6991 15.3648C70.8099 14.2072 72.3231 13.5316 73.9186 13.4808C74.5891 13.4484 75.2577 13.575 75.871 13.8507C76.4843 14.1263 77.0249 14.5433 77.4497 15.0681V13.8224L80.9809 13.8249ZM77.4509 19.6845C77.4754 19.0942 77.3242 18.51 77.017 18.0071C76.7098 17.5042 76.2605 17.1057 75.7271 16.8628C75.1937 16.6199 74.6006 16.5438 74.024 16.6442C73.4473 16.7446 72.9137 17.0169 72.4916 17.4262C72.0696 17.8355 71.7785 18.3628 71.6558 18.9405C71.5331 19.5182 71.5844 20.1198 71.8033 20.6678C72.0221 21.2158 72.3983 21.6852 72.8834 22.0155C73.3686 22.3458 73.9406 22.5219 74.5256 22.5211C74.9068 22.548 75.2893 22.494 75.6485 22.3625C76.0077 22.2311 76.3357 22.025 76.6112 21.7578C76.8868 21.4906 77.1039 21.168 77.2486 20.8109C77.3932 20.4538 77.4622 20.0701 77.4509 19.6845Z" fill="#3F3C3D"/>
<path d="M83.0351 19.9294C83.0301 18.6485 83.4015 17.3947 84.1027 16.3271C84.8038 15.2595 85.803 14.4261 86.9736 13.9324C88.1442 13.4385 89.4335 13.3067 90.6784 13.5535C91.9233 13.8003 93.0677 14.4145 93.9665 15.3185C94.8654 16.2224 95.4783 17.3755 95.7277 18.6315C95.9771 19.8875 95.8517 21.19 95.3674 22.374C94.8831 23.5579 94.0617 24.5702 93.0072 25.2824C91.9526 25.9946 90.7126 26.3748 89.4439 26.3748C88.6019 26.3846 87.7662 26.2246 86.986 25.9044C86.2058 25.5843 85.4966 25.1103 84.9 24.5103C84.3032 23.9101 83.831 23.1959 83.5108 22.4094C83.1906 21.6229 83.0289 20.7798 83.0351 19.9294ZM92.2251 19.9294C92.21 19.3773 92.034 18.8419 91.7192 18.3901C91.4043 17.9385 90.9646 17.5904 90.455 17.3898C89.9453 17.189 89.3883 17.1443 88.8538 17.2615C88.3192 17.3787 87.8307 17.6522 87.4492 18.0482C87.0679 18.4441 86.8104 18.9449 86.7093 19.4878C86.6081 20.0306 86.6677 20.5915 86.8806 21.1004C87.0935 21.6092 87.4502 22.0434 87.906 22.3486C88.362 22.6539 88.8968 22.8167 89.4439 22.8167C89.8185 22.8268 90.1912 22.7583 90.5383 22.6158C90.8856 22.4732 91.1997 22.2596 91.461 21.9884C91.7223 21.717 91.9251 21.394 92.0565 21.0397C92.1881 20.6853 92.2455 20.3073 92.2251 19.9294Z" fill="#3F3C3D"/>
<path d="M97.5444 10.5518C97.5444 10.1171 97.6721 9.6922 97.9112 9.33078C98.1504 8.96935 98.4904 8.68765 98.8881 8.52131C99.2858 8.35496 99.7235 8.31143 100.146 8.39624C100.568 8.48104 100.956 8.69036 101.26 8.99773C101.565 9.30509 101.772 9.6967 101.856 10.123C101.94 10.5494 101.897 10.9913 101.732 11.3929C101.567 11.7945 101.288 12.1377 100.93 12.3792C100.572 12.6207 100.152 12.7496 99.721 12.7496C99.1456 12.7438 98.5952 12.5105 98.1882 12.0995C97.7814 11.6886 97.5502 11.1329 97.5444 10.5518ZM97.9109 13.8238H101.54V26.0338H97.906L97.9109 13.8238Z" fill="#3F3C3D"/>
<path d="M117.203 19.9293C117.245 20.7362 117.129 21.5436 116.861 22.3049C116.592 23.0662 116.178 23.7665 115.641 24.3656C115.104 24.9645 114.454 25.4504 113.731 25.7952C113.007 26.14 112.223 26.3369 111.423 26.3747C110.751 26.4117 110.079 26.2972 109.456 26.0396C108.833 25.7818 108.275 25.3874 107.821 24.8848V30.917H104.194V13.8243H107.821V14.9713C108.275 14.469 108.834 14.0749 109.456 13.8175C110.08 13.56 110.751 13.4456 111.423 13.4826C112.223 13.5202 113.007 13.7171 113.731 14.0619C114.455 14.4068 115.104 14.8927 115.642 15.4919C116.179 16.091 116.593 16.7915 116.861 17.5531C117.129 18.3146 117.246 19.1222 117.203 19.9293ZM113.576 19.9293C113.561 19.3579 113.381 18.8034 113.056 18.3351C112.731 17.8669 112.277 17.5058 111.75 17.2971C111.223 17.0883 110.647 17.041 110.093 17.1614C109.54 17.2817 109.034 17.5641 108.639 17.9733C108.243 18.3827 107.976 18.9004 107.871 19.4622C107.766 20.0239 107.827 20.6043 108.047 21.131C108.267 21.6578 108.636 22.1072 109.108 22.4233C109.58 22.7393 110.133 22.9079 110.699 22.9078C111.088 22.9253 111.476 22.8595 111.838 22.715C112.199 22.5706 112.527 22.3504 112.798 22.0692C113.07 21.7879 113.279 21.4519 113.413 21.0832C113.547 20.7144 113.603 20.3211 113.576 19.9293Z" fill="#3F3C3D"/>
<path d="M128.398 22.3694C128.398 25.1777 125.981 26.3741 123.37 26.3741C122.314 26.4705 121.255 26.2453 120.328 25.7272C119.401 25.2092 118.649 24.4223 118.17 23.4683L121.313 21.6615C121.44 22.1024 121.713 22.4861 122.086 22.7482C122.46 23.0104 122.912 23.1353 123.365 23.102C124.234 23.102 124.67 22.8332 124.67 22.346C124.67 21.0017 118.721 21.7108 118.721 17.4867C118.721 14.8239 120.946 13.482 123.461 13.482C124.407 13.4518 125.342 13.6783 126.171 14.1377C127.001 14.5972 127.693 15.2728 128.176 16.0942L125.081 17.779C124.945 17.4592 124.719 17.1867 124.431 16.9957C124.143 16.8046 123.806 16.7035 123.461 16.7047C122.832 16.7047 122.445 16.9514 122.445 17.388C122.45 18.7804 128.398 17.8517 128.398 22.3694Z" fill="#3F3C3D"/>
<path d="M141.649 13.8245V26.0345H138.021V24.8862C137.602 25.3929 137.071 25.7921 136.47 26.0511C135.869 26.3101 135.217 26.4215 134.565 26.3761C132.122 26.3761 130.045 24.6186 130.045 21.3194V13.8245H133.673V20.7829C133.643 21.0738 133.675 21.3678 133.77 21.6444C133.862 21.9212 134.015 22.174 134.215 22.3853C134.416 22.5965 134.659 22.7612 134.929 22.8679C135.197 22.9746 135.487 23.0207 135.776 23.0029C137.106 23.0029 138.025 22.2222 138.025 20.4882V13.8282L141.649 13.8245Z" fill="#3F3C3D"/>
<path d="M162.45 18.538V26.0342H158.822V18.855C158.822 17.634 158.242 16.8533 157.082 16.8533C155.873 16.8533 155.195 17.708 155.195 19.1485V26.0342H151.568V18.855C151.568 17.634 150.988 16.8533 149.827 16.8533C148.617 16.8533 147.941 17.708 147.941 19.1485V26.0342H144.313V13.8242H147.941V14.9466C148.317 14.4487 148.81 14.0538 149.376 13.7981C149.943 13.5423 150.563 13.4339 151.181 13.4826C151.802 13.4519 152.42 13.5842 152.975 13.8665C153.53 14.1487 154.003 14.5715 154.348 15.0933C154.75 14.5473 155.283 14.1132 155.896 13.8315C156.509 13.5498 157.183 13.4298 157.855 13.4826C160.631 13.4838 162.45 15.4855 162.45 18.538Z" fill="#3F3C3D"/>
<path d="M165.518 13.749C167.005 13.749 168.21 12.532 168.21 11.0308C168.21 9.5295 167.005 8.3125 165.518 8.3125C164.032 8.3125 162.826 9.5295 162.826 11.0308C162.826 12.532 164.032 13.749 165.518 13.749Z" fill="#3F3C3D"/>
</svg>
