<svg width="259" height="56" viewBox="0 0 259 56" fill="none" xmlns="http://www.w3.org/2000/svg">
<path d="M41.4749 24.6912C40.7737 25.3953 40.2368 26.2452 39.9024 27.18C39.5679 28.115 39.4441 29.112 39.5397 30.1002L39.5065 30.0669C39.6049 31.2302 39.4476 32.4006 39.046 33.497C38.6444 34.5932 38.008 35.5887 37.1812 36.4142C36.3542 37.2395 35.3569 37.875 34.2586 38.2757C33.1604 38.6766 31.9877 38.8336 30.8225 38.7353L30.8559 38.7686C29.4621 38.6391 28.0622 38.9418 26.8469 39.6356C25.6318 40.3294 24.6606 41.3804 24.0658 42.6454C23.471 43.9103 23.2814 45.3275 23.523 46.704C23.7648 48.0804 24.4258 49.3489 25.4161 50.3365C26.4064 51.3241 27.6777 51.9828 29.0567 52.2227C30.4359 52.4628 31.8554 52.2722 33.1221 51.6774C34.3888 51.0824 35.4407 50.1121 36.1346 48.8985C36.8286 47.6848 37.1307 46.2872 36.9997 44.8959L37.0348 44.9292C36.9364 43.7661 37.0935 42.5955 37.4951 41.4991C37.8968 40.4029 38.5334 39.4074 39.3601 38.5819C40.1871 37.7566 41.1844 37.1211 42.2826 36.7204C43.3809 36.3195 44.5534 36.1625 45.7188 36.2608L45.6836 36.2275C46.8221 36.3296 47.9682 36.1433 49.0155 35.6857C50.0626 35.2281 50.9772 34.514 51.6743 33.6096C52.3714 32.7053 52.8287 31.6398 53.0033 30.5122C53.1781 29.3844 53.0649 28.2309 52.6742 27.1584C52.2835 26.086 51.6278 25.1294 50.7681 24.3772C49.9084 23.6251 48.8724 23.1017 47.7562 22.8557C46.6399 22.6097 45.4794 22.6489 44.3823 22.9697C43.2853 23.2906 42.2872 23.8827 41.4804 24.6912H41.4749Z" fill="#3F3C3D"/>
<path d="M27.8276 34.4154L27.7925 34.3821C28.7828 34.4817 29.7829 34.3603 30.7207 34.0268C31.6583 33.6933 32.51 33.1561 33.2141 32.4538C33.918 31.7515 34.4571 30.9016 34.7918 29.9659C35.1266 29.0302 35.2489 28.032 35.1499 27.0433L35.1851 27.0766C35.0867 25.9133 35.2439 24.7429 35.6454 23.6465C36.047 22.5503 36.6836 21.5547 37.5104 20.7293C38.3373 19.904 39.3346 19.2685 40.4328 18.8678C41.5312 18.4668 42.7037 18.31 43.869 18.4081L43.8338 18.3749C45.2278 18.5056 46.6281 18.2038 47.8439 17.5108C49.0599 16.8178 50.0319 15.7673 50.6276 14.5026C51.2233 13.2378 51.4137 11.8204 51.1728 10.4437C50.9319 9.06695 50.2715 7.79793 49.2814 6.80969C48.2914 5.82146 47.0201 5.16212 45.6409 4.92164C44.2617 4.68114 42.8419 4.87119 41.5748 5.46586C40.3077 6.06052 39.2555 7.03087 38.5612 8.24454C37.8669 9.45819 37.5646 10.8561 37.6955 12.2475L37.6622 12.2125C37.7608 13.3757 37.604 14.5464 37.2025 15.6428C36.8011 16.7392 36.1645 17.7349 35.3377 18.5605C34.5108 19.3858 33.5133 20.0212 32.4149 20.422C31.3164 20.8227 30.1437 20.9793 28.9783 20.8809L29.0116 20.916C28.0213 20.8164 27.021 20.9378 26.0835 21.2713C25.1459 21.6046 24.2941 22.142 23.59 22.8443C22.8859 23.5466 22.347 24.3964 22.0122 25.3322C21.6775 26.2679 21.5552 27.266 21.6542 28.2548L21.6209 28.2215C21.7189 29.3846 21.5615 30.555 21.1599 31.6512C20.7581 32.7472 20.1217 33.7428 19.2949 34.5681C18.4681 35.3934 17.4708 36.0286 16.3727 36.4297C15.2747 36.8307 14.1021 36.9878 12.937 36.8899L12.9703 36.9232C11.5764 36.7924 10.176 37.0942 8.96012 37.7873C7.7443 38.4803 6.77222 39.5307 6.1765 40.7955C5.58076 42.0603 5.39036 43.4777 5.63129 44.8544C5.87221 46.2311 6.53274 47.5002 7.52273 48.4883C8.51274 49.4767 9.78402 50.136 11.1632 50.3764C12.5424 50.6168 13.9623 50.4268 15.2293 49.8322C16.4963 49.2375 17.5487 48.2673 18.243 47.0536C18.9373 45.8398 19.2396 44.442 19.1086 43.0505L19.1437 43.0838C19.0453 41.9205 19.2026 40.7501 19.6042 39.6537C20.0057 38.5575 20.6422 37.562 21.469 36.7365C22.296 35.9112 23.2933 35.2757 24.3915 34.875C25.4898 34.4741 26.6623 34.3171 27.8276 34.4154Z" fill="#3F3C3D"/>
<path d="M15.4289 30.7066C16.1301 30.0026 16.6669 29.1528 17.0011 28.2178C17.3353 27.2828 17.4586 26.2856 17.3622 25.2976L17.3973 25.3308C17.2989 24.1674 17.456 22.9964 17.8579 21.8998C18.2597 20.8033 18.8965 19.8075 19.7239 18.9821C20.5512 18.1566 21.5489 17.5214 22.6476 17.1207C23.7463 16.7201 24.9194 16.5637 26.0849 16.6624L26.0498 16.6292C27.4432 16.7595 28.8431 16.4576 30.0583 15.7646C31.2736 15.0717 32.245 14.0214 32.8405 12.7571C33.4359 11.4927 33.6261 10.0758 33.3852 8.6996C33.1443 7.32338 32.4839 6.05484 31.4943 5.06697C30.5047 4.07909 29.2338 3.41997 27.8552 3.17949C26.4765 2.939 25.057 3.12887 23.7905 3.72318C22.5238 4.31748 21.4717 5.28732 20.7776 6.50042C20.0833 7.71352 19.7808 9.11084 19.9115 10.5018L19.8782 10.4686C19.9766 11.6317 19.8193 12.8023 19.4177 13.8986C19.0161 14.9948 18.3797 15.9904 17.5528 16.8158C16.726 17.6412 15.7286 18.2765 14.6304 18.6773C13.5321 19.0783 12.3595 19.2352 11.1943 19.137L11.2276 19.1702C10.089 19.0683 8.9431 19.255 7.89604 19.7128C6.84897 20.1706 5.93461 20.8849 5.2377 21.7894C4.54078 22.6937 4.08387 23.7593 3.90927 24.8869C3.73468 26.0147 3.84807 27.1681 4.23892 28.2403C4.62977 29.3127 5.28546 30.2691 6.14521 31.0211C7.00496 31.7732 8.04097 32.2964 9.15722 32.5424C10.2735 32.7882 11.4338 32.7488 12.5308 32.4281C13.6278 32.1071 14.6259 31.5151 15.4326 30.7066H15.4289Z" fill="#3F3C3D"/>
<path d="M72.7363 12.29H78.2308V38.9804H72.7363V12.29Z" fill="#3F3C3D"/>
<path d="M81.3428 29.8407C81.3352 27.9227 81.898 26.0454 82.9599 24.4469C84.0218 22.8484 85.5351 21.6004 87.3081 20.8611C89.0812 20.1217 91.034 19.9243 92.9195 20.2938C94.8051 20.6633 96.5383 21.583 97.8997 22.9366C99.2612 24.2901 100.189 26.0166 100.567 27.8972C100.945 29.7779 100.755 31.7282 100.022 33.5011C99.288 35.2737 98.0438 36.7895 96.4467 37.8558C94.8495 38.9222 92.9713 39.4916 91.0497 39.4916C89.7743 39.5062 88.5088 39.2666 87.327 38.7872C86.1452 38.3078 85.0711 37.5982 84.1674 36.6997C83.2635 35.8011 82.5483 34.7317 82.0634 33.5541C81.5783 32.3764 81.3334 31.114 81.3428 29.8407ZM95.2622 29.8407C95.2392 29.0139 94.9727 28.2123 94.4959 27.5358C94.019 26.8596 93.353 26.3384 92.5812 26.038C91.8092 25.7373 90.9657 25.6705 90.156 25.8459C89.3463 26.0214 88.6063 26.431 88.0285 27.0239C87.4509 27.6167 87.061 28.3665 86.908 29.1794C86.7548 29.9921 86.8449 30.832 87.1673 31.594C87.4898 32.3559 88.03 33.006 88.7204 33.463C89.411 33.9201 90.2213 34.1638 91.0497 34.1638C91.6171 34.179 92.1816 34.0765 92.7075 33.863C93.2333 33.6495 93.7091 33.3297 94.1048 32.9236C94.5005 32.5173 94.8078 32.0337 95.0069 31.5031C95.2061 30.9726 95.2931 30.4065 95.2622 29.8407Z" fill="#3F3C3D"/>
<path d="M122.655 20.7004V38.0594C122.655 44.2015 117.856 46.798 112.985 46.798C111.27 46.9262 109.553 46.5803 108.022 45.7986C106.491 45.0167 105.205 43.8291 104.305 42.3659L108.993 39.6605C109.371 40.4232 109.974 41.0524 110.72 41.464C111.466 41.8754 112.32 42.0498 113.168 41.9633C113.71 42.0383 114.263 41.9907 114.784 41.8239C115.305 41.6572 115.782 41.3755 116.179 41.0001C116.576 40.6245 116.884 40.1646 117.079 39.6542C117.274 39.144 117.352 38.5964 117.307 38.052V36.3808C116.663 37.1665 115.845 37.7909 114.916 38.2036C113.987 38.6164 112.974 38.806 111.959 38.7575C109.542 38.6814 107.25 37.6698 105.568 35.9364C103.885 34.2033 102.945 31.8846 102.945 29.4713C102.945 27.058 103.885 24.7393 105.568 23.0062C107.25 21.2729 109.542 20.2613 111.959 20.1852C112.974 20.1366 113.987 20.3263 114.916 20.739C115.845 21.1517 116.663 21.7761 117.307 22.5619V20.6967L122.655 20.7004ZM117.309 29.4741C117.346 28.5903 117.117 27.7155 116.651 26.9626C116.186 26.2095 115.506 25.6128 114.698 25.2492C113.89 24.8854 112.992 24.7715 112.118 24.9218C111.245 25.0721 110.437 25.4799 109.797 26.0928C109.158 26.7055 108.717 27.4952 108.531 28.3602C108.345 29.2252 108.423 30.126 108.755 30.9465C109.086 31.767 109.656 32.4698 110.391 32.9644C111.125 33.4589 111.992 33.7226 112.878 33.7215C113.455 33.7618 114.035 33.6809 114.579 33.484C115.123 33.2872 115.619 32.9786 116.037 32.5786C116.454 32.1784 116.783 31.6955 117.002 31.1607C117.221 30.6261 117.326 30.0516 117.309 29.4741Z" fill="#3F3C3D"/>
<path d="M125.766 29.8407C125.759 27.9227 126.321 26.0454 127.383 24.4469C128.445 22.8484 129.959 21.6004 131.732 20.8611C133.505 20.1217 135.458 19.9243 137.343 20.2938C139.229 20.6633 140.962 21.583 142.323 22.9366C143.685 24.2901 144.613 26.0166 144.991 27.8972C145.369 29.7779 145.179 31.7282 144.445 33.5011C143.712 35.2737 142.467 36.7895 140.87 37.8558C139.273 38.9222 137.395 39.4916 135.473 39.4916C134.198 39.5062 132.932 39.2666 131.751 38.7872C130.569 38.3078 129.495 37.5982 128.591 36.6997C127.687 35.8011 126.972 34.7317 126.487 33.5541C126.002 32.3764 125.757 31.114 125.766 29.8407ZM139.686 29.8407C139.663 29.0139 139.396 28.2123 138.919 27.5358C138.443 26.8596 137.777 26.3384 137.005 26.038C136.233 25.7373 135.389 25.6705 134.58 25.8459C133.77 26.0214 133.03 26.431 132.452 27.0239C131.875 27.6167 131.485 28.3665 131.331 29.1794C131.178 29.9921 131.268 30.832 131.591 31.594C131.913 32.3559 132.454 33.006 133.144 33.463C133.835 33.9201 134.645 34.1638 135.473 34.1638C136.041 34.179 136.605 34.0765 137.131 33.863C137.657 33.6495 138.133 33.3297 138.528 32.9236C138.924 32.5173 139.231 32.0337 139.43 31.5031C139.63 30.9726 139.717 30.4065 139.686 29.8407Z" fill="#3F3C3D"/>
<path d="M147.743 15.7996C147.743 15.1487 147.936 14.5125 148.298 13.9713C148.66 13.4302 149.175 13.0084 149.778 12.7593C150.38 12.5102 151.043 12.445 151.683 12.572C152.322 12.699 152.91 13.0124 153.371 13.4727C153.832 13.9329 154.146 14.5192 154.273 15.1576C154.4 15.796 154.335 16.4576 154.085 17.059C153.836 17.6603 153.413 18.1742 152.871 18.5359C152.329 18.8975 151.691 19.0904 151.039 19.0904C150.168 19.0818 149.334 18.7324 148.718 18.117C148.102 17.5017 147.751 16.6697 147.743 15.7996ZM148.298 20.6989H153.794V38.9813H148.29L148.298 20.6989Z" fill="#3F3C3D"/>
<path d="M177.518 29.8406C177.582 31.0489 177.405 32.2578 176.999 33.3977C176.593 34.5377 175.965 35.5863 175.152 36.4832C174.338 37.38 173.355 38.1076 172.259 38.6239C171.162 39.1401 169.975 39.435 168.764 39.4915C167.746 39.5469 166.728 39.3755 165.785 38.9897C164.841 38.6038 163.995 38.0132 163.308 37.2607V46.2929H157.814V20.6995H163.308V22.4169C163.995 21.6649 164.841 21.0747 165.785 20.6893C166.729 20.3037 167.746 20.1325 168.764 20.1879C169.975 20.2442 171.163 20.539 172.26 21.0553C173.356 21.5716 174.339 22.2993 175.153 23.1964C175.967 24.0935 176.594 25.1424 177 26.2828C177.406 27.4229 177.582 28.6321 177.518 29.8406ZM172.024 29.8406C172.002 28.9851 171.729 28.1548 171.237 27.4536C170.745 26.7526 170.057 26.2119 169.259 25.8994C168.46 25.5868 167.588 25.516 166.749 25.6963C165.911 25.8763 165.145 26.2992 164.546 26.9119C163.947 27.5249 163.543 28.3001 163.384 29.1413C163.225 29.9823 163.317 30.8513 163.651 31.6401C163.984 32.4288 164.542 33.1017 165.257 33.575C165.971 34.0482 166.81 34.3006 167.667 34.3004C168.256 34.3266 168.843 34.2282 169.391 34.0118C169.939 33.7955 170.435 33.4659 170.846 33.0448C171.258 32.6236 171.575 32.1206 171.778 31.5684C171.981 31.0162 172.065 30.4273 172.024 29.8406Z" fill="#3F3C3D"/>
<path d="M194.474 33.494C194.474 37.6989 190.813 39.4902 186.858 39.4902C185.259 39.6346 183.655 39.2974 182.251 38.5216C180.847 37.746 179.709 36.5678 178.982 35.1394L183.742 32.4339C183.935 33.0941 184.349 33.6687 184.914 34.0611C185.48 34.4537 186.164 34.6408 186.85 34.5909C188.168 34.5909 188.828 34.1883 188.828 33.4589C188.828 31.446 179.817 32.5078 179.817 26.1829C179.817 22.1958 183.187 20.1866 186.997 20.1866C188.429 20.1414 189.846 20.4804 191.102 21.1683C192.358 21.8564 193.407 22.868 194.138 24.0979L189.45 26.6205C189.244 26.1417 188.902 25.7337 188.466 25.4477C188.029 25.1616 187.518 25.0102 186.997 25.0121C186.044 25.0121 185.457 25.3814 185.457 26.0351C185.465 28.1201 194.474 26.7295 194.474 33.494Z" fill="#3F3C3D"/>
<path d="M214.544 20.7002V38.9825H209.05V37.2633C208.415 38.0219 207.61 38.6197 206.7 39.0075C205.79 39.3953 204.802 39.562 203.814 39.4941C200.114 39.4941 196.969 36.8625 196.969 31.9226V20.7002H202.464V31.1193C202.417 31.5547 202.467 31.995 202.61 32.4092C202.75 32.8236 202.982 33.2022 203.285 33.5185C203.589 33.8349 203.957 34.0814 204.366 34.2411C204.773 34.4009 205.211 34.4699 205.649 34.4434C207.664 34.4434 209.055 33.2744 209.055 30.6779V20.7057L214.544 20.7002Z" fill="#3F3C3D"/>
<path d="M246.05 27.7577V38.982H240.555V28.2323C240.555 26.4041 239.676 25.2351 237.919 25.2351C236.087 25.2351 235.061 26.5149 235.061 28.6718V38.982H229.568V28.2323C229.568 26.4041 228.689 25.2351 226.93 25.2351C225.099 25.2351 224.074 26.5149 224.074 28.6718V38.982H218.579V20.6996H224.074V22.3801C224.643 21.6346 225.391 21.0433 226.247 20.6605C227.106 20.2775 228.046 20.1151 228.982 20.1881C229.921 20.1421 230.858 20.3403 231.699 20.763C232.539 21.1855 233.255 21.8185 233.779 22.5999C234.387 21.7824 235.194 21.1323 236.123 20.7105C237.051 20.2887 238.073 20.1091 239.09 20.1881C243.295 20.1899 246.05 23.1871 246.05 27.7577Z" fill="#3F3C3D"/>
<path d="M250.698 20.5866C252.949 20.5866 254.775 18.7642 254.775 16.5164C254.775 14.2685 252.949 12.4463 250.698 12.4463C248.446 12.4463 246.62 14.2685 246.62 16.5164C246.62 18.7642 248.446 20.5866 250.698 20.5866Z" fill="#3F3C3D"/>
</svg>
