<svg width="171" height="37" viewBox="0 0 171 37" fill="none" xmlns="http://www.w3.org/2000/svg">
<path d="M27.3829 16.4905C26.92 16.9608 26.5655 17.5283 26.3447 18.1527C26.1239 18.7771 26.0422 19.443 26.1053 20.1029L26.0833 20.0807C26.1483 20.8576 26.0445 21.6393 25.7793 22.3715C25.5141 23.1036 25.094 23.7685 24.5481 24.3198C24.0021 24.871 23.3437 25.2954 22.6185 25.563C21.8935 25.8308 21.1192 25.9356 20.3499 25.87L20.3719 25.8922C19.4517 25.8057 18.5274 26.0079 17.7251 26.4712C16.9229 26.9346 16.2816 27.6365 15.8889 28.4813C15.4962 29.3262 15.371 30.2726 15.5305 31.1919C15.6902 32.1112 16.1266 32.9583 16.7804 33.6179C17.4343 34.2775 18.2736 34.7174 19.1841 34.8776C20.0947 35.038 21.0319 34.9107 21.8682 34.5134C22.7045 34.1161 23.399 33.4681 23.8572 32.6575C24.3153 31.847 24.5148 30.9136 24.4283 29.9844L24.4515 30.0066C24.3865 29.2298 24.4902 28.448 24.7554 27.7158C25.0206 26.9837 25.4409 26.3188 25.9867 25.7675C26.5327 25.2163 27.1912 24.7919 27.9162 24.5243C28.6414 24.2565 29.4155 24.1517 30.1849 24.2173L30.1617 24.1951C30.9133 24.2633 31.67 24.1389 32.3615 23.8333C33.0528 23.5276 33.6567 23.0507 34.1169 22.4468C34.5771 21.8428 34.8791 21.1312 34.9944 20.3781C35.1098 19.6249 35.0351 18.8545 34.7771 18.1382C34.5191 17.422 34.0862 16.7832 33.5187 16.2808C32.9511 15.7785 32.2671 15.429 31.53 15.2647C30.793 15.1004 30.0268 15.1266 29.3025 15.3408C28.5782 15.5551 27.9193 15.9505 27.3866 16.4905H27.3829Z" fill="#3F3C3D"/>
<path d="M18.3726 22.985L18.3494 22.9628C19.0033 23.0293 19.6636 22.9482 20.2827 22.7255C20.9017 22.5028 21.4641 22.144 21.9289 21.6749C22.3937 21.2059 22.7496 20.6383 22.9706 20.0134C23.1917 19.3885 23.2724 18.7218 23.207 18.0615L23.2303 18.0837C23.1653 17.3068 23.2691 16.5252 23.5341 15.7929C23.7993 15.0608 24.2196 14.3959 24.7655 13.8446C25.3114 13.2935 25.9699 12.8691 26.695 12.6014C27.4201 12.3336 28.1943 12.2289 28.9636 12.2945L28.9404 12.2723C29.8608 12.3596 30.7853 12.158 31.588 11.6952C32.3908 11.2324 33.0326 10.5308 33.4259 9.68608C33.8192 8.84142 33.9449 7.8948 33.7858 6.97534C33.6268 6.05587 33.1908 5.20835 32.537 4.54835C31.8835 3.88835 31.0441 3.448 30.1335 3.2874C29.2229 3.12678 28.2855 3.2537 27.4489 3.65086C26.6124 4.04801 25.9176 4.69606 25.4592 5.50662C25.0008 6.31717 24.8013 7.25076 24.8877 8.18006L24.8657 8.15662C24.9308 8.93349 24.8273 9.71535 24.5622 10.4476C24.2972 11.1799 23.8769 11.8449 23.331 12.3962C22.785 12.9474 22.1264 13.3718 21.4013 13.6394C20.676 13.907 19.9017 14.0116 19.1324 13.9459L19.1543 13.9693C18.5005 13.9028 17.8401 13.9839 17.2211 14.2066C16.602 14.4292 16.0397 14.7881 15.5748 15.2572C15.11 15.7262 14.7541 16.2938 14.5331 16.9187C14.3121 17.5436 14.2314 18.2103 14.2967 18.8706L14.2747 18.8484C14.3395 19.6251 14.2355 20.4068 13.9704 21.1389C13.7051 21.8709 13.2849 22.5358 12.739 23.087C12.1931 23.6382 11.5347 24.0624 10.8097 24.3303C10.0847 24.5981 9.31062 24.703 8.54135 24.6377L8.56334 24.6599C7.64302 24.5725 6.71843 24.7741 5.9157 25.2369C5.11297 25.6998 4.47117 26.4013 4.07786 27.246C3.68454 28.0907 3.55883 29.0373 3.71789 29.9568C3.87696 30.8762 4.31306 31.7238 4.96668 32.3837C5.62032 33.0438 6.45966 33.4841 7.37025 33.6447C8.28083 33.8053 9.21832 33.6784 10.0548 33.2812C10.8913 32.8841 11.5862 32.2361 12.0445 31.4256C12.5029 30.6149 12.7025 29.6814 12.616 28.7521L12.6392 28.7743C12.5743 27.9974 12.6781 27.2157 12.9433 26.4835C13.2083 25.7514 13.6286 25.0865 14.1745 24.5352C14.7204 23.984 15.3789 23.5596 16.1039 23.292C16.8291 23.0242 17.6033 22.9194 18.3726 22.985Z" fill="#3F3C3D"/>
<path d="M10.1866 20.5075C10.6495 20.0374 11.0039 19.4698 11.2246 18.8454C11.4452 18.2209 11.5266 17.5549 11.4629 16.8951L11.4861 16.9173C11.4212 16.1403 11.5249 15.3582 11.7902 14.6259C12.0555 13.8935 12.476 13.2285 13.0222 12.6772C13.5684 12.1259 14.2272 11.7017 14.9526 11.4341C15.678 11.1665 16.4525 11.0621 17.222 11.128L17.1988 11.1058C18.1188 11.1929 19.043 10.9912 19.8454 10.5284C20.6477 10.0656 21.2891 9.36421 21.6823 8.51981C22.0753 7.6754 22.2009 6.72912 22.0419 5.81001C21.8828 4.89089 21.4468 4.04369 20.7934 3.38393C20.1401 2.72417 19.301 2.28397 18.3908 2.12336C17.4806 1.96275 16.5434 2.08956 15.7072 2.48647C14.8709 2.88338 14.1762 3.53109 13.7179 4.34127C13.2595 5.15144 13.0598 6.08466 13.1461 7.01363L13.1241 6.99143C13.1891 7.76824 13.0852 8.55002 12.8201 9.28217C12.5549 10.0143 12.1348 10.6792 11.5888 11.2305C11.0429 11.7817 10.3844 12.206 9.65933 12.4737C8.93424 12.7415 8.16002 12.8463 7.3907 12.7807L7.41269 12.8029C6.66099 12.7348 5.90442 12.8595 5.21312 13.1652C4.52181 13.471 3.91812 13.948 3.458 14.5521C2.99787 15.1561 2.6962 15.8677 2.58093 16.6208C2.46566 17.374 2.54052 18.1443 2.79857 18.8604C3.05662 19.5766 3.48953 20.2153 4.05717 20.7176C4.6248 21.2199 5.3088 21.5693 6.04579 21.7336C6.78276 21.8977 7.54888 21.8715 8.27315 21.6572C8.99741 21.4429 9.65637 21.0475 10.189 20.5075H10.1866Z" fill="#3F3C3D"/>
<path d="M48.0229 8.20801H51.6506V26.0334H48.0229V8.20801Z" fill="#3F3C3D"/>
<path d="M53.705 19.9298C53.7 18.6489 54.0716 17.3951 54.7727 16.3275C55.4738 15.2599 56.4729 14.4264 57.6435 13.9327C58.8141 13.4389 60.1035 13.3071 61.3483 13.5538C62.5932 13.8006 63.7376 14.4148 64.6364 15.3189C65.5353 16.2228 66.1482 17.3758 66.3976 18.6318C66.647 19.8879 66.5216 21.1904 66.0373 22.3744C65.553 23.5583 64.7316 24.5706 63.6771 25.2827C62.6225 25.995 61.3825 26.3752 60.1138 26.3752C59.2718 26.3849 58.4362 26.225 57.656 25.9048C56.8757 25.5846 56.1666 25.1107 55.5699 24.5107C54.9731 23.9105 54.5009 23.1963 54.1808 22.4098C53.8605 21.6233 53.6988 20.7802 53.705 19.9298ZM62.895 19.9298C62.8799 19.3776 62.7039 18.8423 62.3891 18.3905C62.0742 17.9388 61.6345 17.5908 61.1249 17.3901C60.6152 17.1893 60.0584 17.1447 59.5238 17.2619C58.9891 17.379 58.5006 17.6526 58.1191 18.0486C57.7378 18.4445 57.4803 18.9452 57.3793 19.4881C57.2782 20.0309 57.3377 20.5919 57.5506 21.1007C57.7634 21.6096 58.1201 22.0437 58.5759 22.349C59.0319 22.6542 59.5669 22.817 60.1138 22.817C60.4885 22.8272 60.8611 22.7587 61.2084 22.6161C61.5555 22.4736 61.8696 22.2599 62.1309 21.9887C62.3922 21.7174 62.5951 21.3944 62.7265 21.0401C62.858 20.6857 62.9154 20.3077 62.895 19.9298Z" fill="#3F3C3D"/>
<path d="M80.9809 13.8247V25.418C80.9809 29.5201 77.8125 31.2541 74.5965 31.2541C73.4642 31.3397 72.3303 31.1087 71.3194 30.5866C70.3085 30.0644 69.4595 29.2713 68.8655 28.2941L71.9606 26.4873C72.2103 26.9967 72.6081 27.4169 73.1007 27.6918C73.5934 27.9665 74.1575 28.083 74.7174 28.0253C75.0753 28.0753 75.4397 28.0435 75.7838 27.9321C76.1278 27.8208 76.4427 27.6327 76.705 27.3819C76.9674 27.1311 77.1705 26.824 77.2995 26.4831C77.4283 26.1423 77.4796 25.7766 77.4497 25.4131V24.2969C77.0249 24.8217 76.4843 25.2387 75.871 25.5143C75.2577 25.79 74.5891 25.9166 73.9186 25.8842C72.3231 25.8334 70.8099 25.1578 69.6991 24.0001C68.5884 22.8427 67.9673 21.2941 67.9673 19.6824C67.9673 18.0707 68.5884 16.5221 69.6991 15.3646C70.8099 14.207 72.3231 13.5314 73.9186 13.4806C74.5891 13.4481 75.2577 13.5748 75.871 13.8504C76.4843 14.1261 77.0249 14.5431 77.4497 15.0679V13.8222L80.9809 13.8247ZM77.4509 19.6842C77.4754 19.0939 77.3242 18.5097 77.017 18.0069C76.7098 17.5039 76.2605 17.1054 75.7271 16.8626C75.1937 16.6196 74.6006 16.5435 74.024 16.6439C73.4473 16.7443 72.9137 17.0166 72.4916 17.426C72.0696 17.8352 71.7785 18.3626 71.6558 18.9403C71.5331 19.518 71.5844 20.1196 71.8033 20.6676C72.0221 21.2155 72.3983 21.6849 72.8834 22.0152C73.3686 22.3455 73.9406 22.5216 74.5256 22.5209C74.9068 22.5478 75.2893 22.4938 75.6485 22.3623C76.0077 22.2308 76.3357 22.0247 76.6112 21.7576C76.8868 21.4903 77.1039 21.1678 77.2486 20.8106C77.3932 20.4536 77.4622 20.0699 77.4509 19.6842Z" fill="#3F3C3D"/>
<path d="M83.0351 19.9298C83.0301 18.6489 83.4015 17.3951 84.1027 16.3275C84.8038 15.2599 85.803 14.4264 86.9736 13.9327C88.1442 13.4389 89.4335 13.3071 90.6784 13.5538C91.9233 13.8006 93.0677 14.4148 93.9665 15.3189C94.8654 16.2228 95.4783 17.3758 95.7277 18.6318C95.9771 19.8879 95.8517 21.1904 95.3674 22.3744C94.8831 23.5583 94.0617 24.5706 93.0072 25.2827C91.9526 25.995 90.7126 26.3752 89.4439 26.3752C88.6019 26.3849 87.7662 26.225 86.986 25.9048C86.2058 25.5846 85.4966 25.1107 84.9 24.5107C84.3032 23.9105 83.831 23.1963 83.5108 22.4098C83.1906 21.6233 83.0289 20.7802 83.0351 19.9298ZM92.2251 19.9298C92.21 19.3776 92.034 18.8423 91.7192 18.3905C91.4043 17.9388 90.9646 17.5908 90.455 17.3901C89.9453 17.1893 89.3883 17.1447 88.8538 17.2619C88.3192 17.379 87.8307 17.6526 87.4492 18.0486C87.0679 18.4445 86.8104 18.9452 86.7093 19.4881C86.6081 20.0309 86.6677 20.5919 86.8806 21.1007C87.0935 21.6096 87.4502 22.0437 87.906 22.349C88.362 22.6542 88.8968 22.817 89.4439 22.817C89.8185 22.8272 90.1912 22.7587 90.5383 22.6161C90.8856 22.4736 91.1997 22.2599 91.461 21.9887C91.7223 21.7174 91.9251 21.3944 92.0565 21.0401C92.1881 20.6857 92.2455 20.3077 92.2251 19.9298Z" fill="#3F3C3D"/>
<path d="M97.5444 10.5523C97.5444 10.1176 97.6721 9.69269 97.9112 9.33127C98.1504 8.96984 98.4904 8.68814 98.8881 8.5218C99.2858 8.35544 99.7235 8.31192 100.146 8.39672C100.568 8.48153 100.956 8.69085 101.26 8.99822C101.565 9.30558 101.772 9.69719 101.856 10.1235C101.94 10.5499 101.897 10.9918 101.732 11.3934C101.567 11.795 101.288 12.1382 100.93 12.3797C100.572 12.6212 100.152 12.7501 99.721 12.7501C99.1456 12.7443 98.5952 12.511 98.1882 12.1C97.7814 11.6891 97.5502 11.1334 97.5444 10.5523ZM97.9109 13.8243H101.54V26.0343H97.906L97.9109 13.8243Z" fill="#3F3C3D"/>
<path d="M117.203 19.929C117.245 20.736 117.129 21.5433 116.861 22.3047C116.592 23.066 116.178 23.7663 115.641 24.3653C115.104 24.9642 114.454 25.4502 113.731 25.795C113.007 26.1397 112.223 26.3367 111.423 26.3744C110.751 26.4114 110.079 26.297 109.456 26.0393C108.833 25.7816 108.275 25.3871 107.821 24.8846V30.9168H104.194V13.824H107.821V14.971C108.275 14.4688 108.834 14.0746 109.456 13.8172C110.08 13.5597 110.751 13.4454 111.423 13.4824C112.223 13.52 113.007 13.7168 113.731 14.0617C114.455 14.4065 115.104 14.8925 115.642 15.4916C116.179 16.0908 116.593 16.7913 116.861 17.5529C117.129 18.3143 117.246 19.1219 117.203 19.929ZM113.576 19.929C113.561 19.3576 113.381 18.8031 113.056 18.3348C112.731 17.8666 112.277 17.5055 111.75 17.2968C111.223 17.088 110.647 17.0408 110.093 17.1612C109.54 17.2814 109.034 17.5639 108.639 17.9731C108.243 18.3824 107.976 18.9002 107.871 19.462C107.766 20.0236 107.827 20.604 108.047 21.1308C108.267 21.6575 108.636 22.107 109.108 22.4231C109.58 22.739 110.133 22.9076 110.699 22.9075C111.088 22.925 111.476 22.8593 111.838 22.7147C112.199 22.5703 112.527 22.3502 112.798 22.069C113.07 21.7877 113.279 21.4517 113.413 21.0829C113.547 20.7142 113.603 20.3208 113.576 19.929Z" fill="#3F3C3D"/>
<path d="M128.398 22.3696C128.398 25.1779 125.981 26.3742 123.37 26.3742C122.314 26.4706 121.255 26.2454 120.328 25.7273C119.401 25.2093 118.649 24.4224 118.17 23.4685L121.313 21.6616C121.44 22.1025 121.713 22.4862 122.086 22.7483C122.46 23.0105 122.912 23.1355 123.365 23.1022C124.234 23.1022 124.67 22.8333 124.67 22.3461C124.67 21.0018 118.721 21.711 118.721 17.4868C118.721 14.824 120.946 13.4822 123.461 13.4822C124.407 13.4519 125.342 13.6784 126.171 14.1378C127.001 14.5973 127.693 15.273 128.176 16.0944L125.081 17.7791C124.945 17.4593 124.719 17.1869 124.431 16.9958C124.143 16.8048 123.806 16.7036 123.461 16.7049C122.832 16.7049 122.445 16.9515 122.445 17.3881C122.45 18.7806 128.398 17.8519 128.398 22.3696Z" fill="#3F3C3D"/>
<path d="M141.649 13.8242V26.0342H138.021V24.886C137.602 25.3926 137.071 25.7919 136.47 26.0509C135.869 26.3099 135.217 26.4212 134.565 26.3759C132.122 26.3759 130.045 24.6184 130.045 21.3192V13.8242H133.673V20.7827C133.643 21.0735 133.675 21.3675 133.77 21.6442C133.862 21.9209 134.015 22.1738 134.215 22.385C134.416 22.5963 134.659 22.761 134.929 22.8676C135.197 22.9743 135.487 23.0204 135.776 23.0027C137.106 23.0027 138.025 22.222 138.025 20.4879V13.8279L141.649 13.8242Z" fill="#3F3C3D"/>
<path d="M162.45 18.5383V26.0345H158.822V18.8552C158.822 17.6342 158.242 16.8535 157.082 16.8535C155.873 16.8535 155.195 17.7082 155.195 19.1488V26.0345H151.568V18.8552C151.568 17.6342 150.988 16.8535 149.827 16.8535C148.617 16.8535 147.941 17.7082 147.941 19.1488V26.0345H144.313V13.8245H147.941V14.9468C148.317 14.4489 148.81 14.054 149.376 13.7983C149.943 13.5425 150.563 13.4341 151.181 13.4828C151.802 13.4521 152.42 13.5845 152.975 13.8668C153.53 14.149 154.003 14.5717 154.348 15.0936C154.75 14.5476 155.283 14.1134 155.896 13.8317C156.509 13.5501 157.183 13.4301 157.855 13.4828C160.631 13.4841 162.45 15.4858 162.45 18.5383Z" fill="#3F3C3D"/>
<path d="M165.518 13.749C167.005 13.749 168.21 12.532 168.21 11.0308C168.21 9.5295 167.005 8.3125 165.518 8.3125C164.032 8.3125 162.826 9.5295 162.826 11.0308C162.826 12.532 164.032 13.749 165.518 13.749Z" fill="#3F3C3D"/>
</svg>
