<svg width="351" height="76" viewBox="0 0 351 76" fill="none" xmlns="http://www.w3.org/2000/svg">
<path d="M56.2074 33.4613C55.2572 34.4156 54.5296 35.5673 54.0763 36.8341C53.6231 38.1013 53.4553 39.4524 53.5849 40.7916L53.5398 40.7466C53.6732 42.323 53.4601 43.9092 52.9158 45.395C52.3715 46.8806 51.509 48.2298 50.3886 49.3485C49.2679 50.467 47.9163 51.3281 46.4278 51.8712C44.9396 52.4145 43.3503 52.6273 41.7713 52.4941L41.8164 52.5392C39.9275 52.3637 38.0304 52.7739 36.3834 53.7142C34.7367 54.6544 33.4205 56.0787 32.6145 57.793C31.8084 59.5074 31.5514 61.4279 31.8789 63.2934C32.2065 65.1587 33.1023 66.8777 34.4444 68.2162C35.7865 69.5546 37.5094 70.4473 39.3782 70.7724C41.2473 71.0978 43.171 70.8395 44.8877 70.0334C46.6043 69.227 48.0299 67.9121 48.9703 66.2673C49.9107 64.6226 50.3201 62.7286 50.1426 60.843L50.1903 60.8881C50.0569 59.3119 50.2698 57.7255 50.8141 56.2396C51.3584 54.754 52.2211 53.4049 53.3415 52.2862C54.4622 51.1677 55.8138 50.3065 57.302 49.7635C58.7905 49.2201 60.3796 49.0074 61.9588 49.1405L61.9112 49.0955C63.4541 49.2339 65.0072 48.9814 66.4265 48.3612C67.8456 47.741 69.0851 46.7733 70.0298 45.5477C70.9745 44.3221 71.5943 42.8781 71.8309 41.35C72.0679 39.8216 71.9144 38.2584 71.3849 36.8049C70.8554 35.3516 69.9669 34.0552 68.8018 33.0358C67.6367 32.0165 66.2327 31.3072 64.7199 30.9739C63.2071 30.6405 61.6344 30.6936 60.1476 31.1283C58.6609 31.5633 57.3083 32.3656 56.2149 33.4613H56.2074Z" fill="#3F3C3D"/>
<path d="M37.7127 46.6403L37.6651 46.5952C39.0072 46.7301 40.3625 46.5657 41.6334 46.1137C42.904 45.6617 44.0583 44.9337 45.0125 43.9819C45.9665 43.0302 46.6971 41.8784 47.1506 40.6103C47.6044 39.3422 47.7701 37.9895 47.636 36.6496L47.6836 36.6947C47.5502 35.1182 47.7634 33.532 48.3074 32.0462C48.8517 30.5606 49.7144 29.2114 50.8349 28.0927C51.9555 26.9743 53.3071 26.1131 54.7954 25.57C56.2839 25.0266 57.8729 24.814 59.4522 24.9471L59.4045 24.9021C61.2937 25.0793 63.1913 24.6702 64.839 23.7311C66.4869 22.7919 67.8042 21.3682 68.6115 19.6542C69.4188 17.9402 69.6768 16.0193 69.3503 14.1536C69.0239 12.2878 68.1289 10.568 66.787 9.22874C65.4455 7.88949 63.7226 6.99593 61.8535 6.67003C59.9844 6.34411 58.0602 6.60166 56.343 7.40757C54.6259 8.21346 53.1998 9.52849 52.2589 11.1733C51.318 12.818 50.9083 14.7125 51.0858 16.5982L51.0407 16.5506C51.1743 18.127 50.9617 19.7136 50.4177 21.1995C49.8736 22.6854 49.0109 24.0348 47.8905 25.1536C46.7698 26.272 45.4179 27.1332 43.9294 27.6763C42.4407 28.2194 40.8514 28.4316 39.2722 28.2982L39.3173 28.3457C37.9752 28.2108 36.6196 28.3753 35.349 28.8273C34.0784 29.279 32.9241 30.0073 31.9699 30.959C31.0156 31.9108 30.2853 33.0625 29.8315 34.3306C29.378 35.5987 29.2122 36.9514 29.3464 38.2914L29.3013 38.2463C29.4341 39.8225 29.2208 41.4087 28.6765 42.8943C28.1319 44.3796 27.2695 45.7288 26.149 46.8473C25.0285 47.9657 23.677 48.8266 22.1889 49.3702C20.7008 49.9135 19.1117 50.1265 17.5327 49.9939L17.5779 50.0389C15.6888 49.8617 13.7909 50.2707 12.1432 51.2099C10.4955 52.1492 9.17815 53.5727 8.37082 55.2868C7.56347 57.0009 7.30544 58.9217 7.63194 60.7874C7.95845 62.6531 8.8536 64.373 10.1952 65.7122C11.5369 67.0516 13.2598 67.945 15.1289 68.2709C16.998 68.5967 18.9223 68.3392 20.6394 67.5334C22.3564 66.7275 23.7826 65.4126 24.7235 63.7678C25.6644 62.1228 26.0741 60.2285 25.8966 58.3428L25.9442 58.3878C25.8108 56.8114 26.0239 55.2252 26.5682 53.7394C27.1123 52.2538 27.975 50.9046 29.0954 49.7859C30.2161 48.6674 31.5677 47.8063 33.056 47.2632C34.5444 46.7199 36.1335 46.5071 37.7127 46.6403Z" fill="#3F3C3D"/>
<path d="M20.9097 41.6143C21.86 40.6603 22.5875 39.5086 23.0404 38.2415C23.4933 36.9743 23.6604 35.6229 23.5297 34.284L23.5773 34.329C23.4439 32.7523 23.6569 31.1654 24.2015 29.6793C24.7461 28.1932 25.6091 26.8438 26.7303 25.7251C27.8515 24.6064 29.2036 23.7455 30.6926 23.2026C32.1816 22.6596 33.7714 22.4476 35.3509 22.5815L35.3032 22.5364C37.1916 22.713 39.0888 22.3039 40.7357 21.3648C42.3826 20.4257 43.6991 19.0023 44.5062 17.2889C45.313 15.5754 45.5707 13.6552 45.2443 11.7902C44.9179 9.9251 44.0228 8.20596 42.6817 6.86718C41.3407 5.5284 39.6183 4.63515 37.7499 4.30925C35.8816 3.98332 33.9579 4.24065 32.2415 5.04606C30.5249 5.85147 29.0991 7.1658 28.1584 8.80981C27.2174 10.4538 26.8075 12.3475 26.9845 14.2326L26.9394 14.1875C27.0728 15.7638 26.8597 17.3502 26.3154 18.8359C25.7711 20.3216 24.9087 21.6708 23.7881 22.7894C22.6675 23.908 21.3158 24.769 19.8275 25.3121C18.3392 25.8555 16.75 26.0682 15.1709 25.9351L15.216 25.9801C13.673 25.842 12.1201 26.095 10.7011 26.7154C9.28209 27.3358 8.04294 28.3038 7.09847 29.5296C6.154 30.7552 5.53479 32.1992 5.29817 33.7274C5.06157 35.2558 5.21523 36.8189 5.74491 38.272C6.2746 39.7253 7.1632 41.0214 8.32835 42.0405C9.49349 43.0598 10.8975 43.7689 12.4103 44.1022C13.923 44.4353 15.4955 44.382 16.9822 43.9473C18.4688 43.5123 19.8214 42.71 20.9147 41.6143H20.9097Z" fill="#3F3C3D"/>
<path d="M98.573 16.6548H106.019V52.8259H98.573V16.6548Z" fill="#3F3C3D"/>
<path d="M110.237 40.4404C110.227 37.8411 110.989 35.2969 112.428 33.1306C113.868 30.9643 115.918 29.273 118.321 28.2712C120.724 27.2691 123.371 27.0016 125.926 27.5023C128.481 28.0031 130.83 29.2495 132.675 31.0839C134.52 32.9181 135.778 35.2579 136.29 37.8066C136.802 40.3553 136.545 42.9984 135.551 45.401C134.556 47.8033 132.87 49.8575 130.706 51.3025C128.541 52.7478 125.996 53.5194 123.392 53.5194C121.663 53.5392 119.948 53.2146 118.347 52.5649C116.745 51.9152 115.29 50.9534 114.065 49.7358C112.84 48.518 111.871 47.0687 111.213 45.4728C110.556 43.8768 110.224 42.166 110.237 40.4404ZM129.101 40.4404C129.07 39.32 128.708 38.2336 128.062 37.3168C127.416 36.4003 126.513 35.6941 125.467 35.2869C124.421 34.8795 123.278 34.7889 122.181 35.0266C121.083 35.2644 120.08 35.8195 119.297 36.6231C118.515 37.4264 117.986 38.4425 117.779 39.5442C117.571 40.6456 117.693 41.7838 118.13 42.8164C118.567 43.8491 119.299 44.73 120.235 45.3494C121.171 45.9688 122.269 46.2992 123.392 46.2992C124.161 46.3197 124.926 46.1808 125.639 45.8915C126.351 45.6022 126.996 45.1687 127.532 44.6184C128.068 44.0678 128.485 43.4123 128.755 42.6933C129.025 41.9743 129.143 41.2072 129.101 40.4404Z" fill="#3F3C3D"/>
<path d="M166.224 28.0531V51.5782C166.224 59.9021 159.72 63.4208 153.119 63.4208C150.795 63.5945 148.467 63.1258 146.392 62.0664C144.317 61.0068 142.574 59.3973 141.355 57.4144L147.708 53.748C148.221 54.7816 149.037 55.6343 150.048 56.1921C151.06 56.7497 152.218 56.986 153.367 56.8688C154.102 56.9704 154.85 56.9059 155.556 56.6799C156.262 56.4539 156.908 56.0722 157.447 55.5634C157.985 55.0544 158.402 54.4312 158.667 53.7395C158.932 53.048 159.037 52.306 158.975 51.5682V49.3033C158.103 50.3681 156.994 51.2143 155.735 51.7736C154.476 52.333 153.104 52.59 151.727 52.5242C148.452 52.4211 145.346 51.0501 143.066 48.7011C140.786 46.3524 139.511 43.21 139.511 39.9395C139.511 36.669 140.786 33.5267 143.066 31.1779C145.346 28.8289 148.452 27.4579 151.727 27.3548C153.104 27.289 154.476 27.546 155.735 28.1054C156.994 28.6647 158.103 29.5109 158.975 30.5758V28.0481L166.224 28.0531ZM158.978 39.9433C159.028 38.7455 158.718 37.56 158.087 36.5396C157.457 35.519 156.534 34.7104 155.44 34.2176C154.345 33.7246 153.127 33.5702 151.944 33.7739C150.76 33.9776 149.665 34.5302 148.798 35.3609C147.932 36.1913 147.335 37.2614 147.083 38.4336C146.831 39.6059 146.936 40.8267 147.385 41.9386C147.834 43.0506 148.607 44.0031 149.602 44.6733C150.598 45.3435 151.772 45.7009 152.973 45.6994C153.756 45.754 154.541 45.6443 155.278 45.3776C156.015 45.1108 156.689 44.6926 157.254 44.1505C157.82 43.6082 158.266 42.9537 158.563 42.229C158.859 41.5044 159.001 40.7258 158.978 39.9433Z" fill="#3F3C3D"/>
<path d="M170.44 40.4404C170.43 37.8411 171.192 35.2969 172.632 33.1306C174.071 30.9643 176.122 29.273 178.525 28.2712C180.927 27.2691 183.574 27.0016 186.129 27.5023C188.685 28.0031 191.033 29.2495 192.878 31.0839C194.723 32.9181 195.982 35.2579 196.494 37.8066C197.005 40.3553 196.748 42.9984 195.754 45.401C194.76 47.8033 193.074 49.8575 190.909 51.3025C188.745 52.7478 186.199 53.5194 183.595 53.5194C181.867 53.5392 180.151 53.2146 178.55 52.5649C176.949 51.9152 175.493 50.9534 174.268 49.7358C173.043 48.518 172.074 47.0687 171.417 45.4728C170.759 43.8768 170.428 42.166 170.44 40.4404ZM189.304 40.4404C189.273 39.32 188.912 38.2336 188.266 37.3168C187.619 36.4003 186.717 35.6941 185.671 35.2869C184.624 34.8795 183.481 34.7889 182.384 35.0266C181.287 35.2644 180.284 35.8195 179.501 36.6231C178.718 37.4264 178.19 38.4425 177.982 39.5442C177.774 40.6456 177.897 41.7838 178.334 42.8164C178.771 43.8491 179.503 44.73 180.439 45.3494C181.374 45.9688 182.472 46.2992 183.595 46.2992C184.364 46.3197 185.129 46.1808 185.842 45.8915C186.554 45.6022 187.199 45.1687 187.736 44.6184C188.272 44.0678 188.688 43.4123 188.958 42.6933C189.228 41.9743 189.346 41.2072 189.304 40.4404Z" fill="#3F3C3D"/>
<path d="M200.223 21.4114C200.223 20.5294 200.485 19.6671 200.976 18.9337C201.466 18.2003 202.164 17.6287 202.981 17.2912C203.797 16.9536 204.695 16.8653 205.562 17.0374C206.429 17.2094 207.225 17.6342 207.85 18.2579C208.474 18.8816 208.9 19.6763 209.072 20.5414C209.245 21.4065 209.156 22.3032 208.818 23.1181C208.48 23.933 207.907 24.6295 207.172 25.1196C206.438 25.6097 205.574 25.8712 204.69 25.8712C203.509 25.8594 202.38 25.3859 201.544 24.552C200.709 23.7181 200.234 22.5906 200.223 21.4114ZM200.975 28.051H208.424V52.8275H200.965L200.975 28.051Z" fill="#3F3C3D"/>
<path d="M240.575 40.44C240.661 42.0775 240.422 43.7157 239.871 45.2606C239.321 46.8055 238.47 48.2266 237.368 49.4421C236.265 50.6574 234.933 51.6435 233.447 52.3432C231.961 53.0427 230.352 53.4424 228.711 53.519C227.331 53.5941 225.952 53.3618 224.673 52.839C223.394 52.3159 222.248 51.5156 221.318 50.4957V62.7363H213.871V28.0518H221.318V30.3793C222.248 29.3602 223.395 28.5603 224.674 28.038C225.953 27.5154 227.331 27.2834 228.711 27.3585C230.352 27.4349 231.962 27.8343 233.448 28.534C234.934 29.2338 236.267 30.2198 237.369 31.4356C238.472 32.6514 239.323 34.0729 239.873 35.6183C240.423 37.1635 240.662 38.8023 240.575 40.44ZM233.129 40.44C233.1 39.2805 232.729 38.1553 232.062 37.205C231.395 36.255 230.463 35.5222 229.381 35.0988C228.299 34.6751 227.117 34.5792 225.981 34.8235C224.845 35.0675 223.806 35.6406 222.995 36.471C222.184 37.3016 221.636 38.3523 221.42 39.4922C221.204 40.632 221.33 41.8097 221.781 42.8786C222.232 43.9475 222.99 44.8595 223.958 45.5009C224.926 46.1421 226.062 46.4842 227.224 46.484C228.022 46.5195 228.818 46.3861 229.561 46.0928C230.303 45.7997 230.976 45.353 231.533 44.7824C232.09 44.2115 232.521 43.5298 232.796 42.7815C233.071 42.0332 233.184 41.2351 233.129 40.44Z" fill="#3F3C3D"/>
<path d="M263.554 45.3917C263.554 51.0903 258.592 53.5179 253.232 53.5179C251.066 53.7136 248.891 53.2566 246.988 52.2053C245.086 51.1541 243.543 49.5574 242.559 47.6216L249.01 43.9552C249.271 44.8499 249.831 45.6285 250.598 46.1603C251.364 46.6924 252.292 46.9459 253.222 46.8783C255.007 46.8783 255.902 46.3327 255.902 45.3442C255.902 42.6163 243.69 44.0553 243.69 35.4837C243.69 30.0804 248.258 27.3575 253.42 27.3575C255.36 27.2962 257.281 27.7557 258.983 28.6879C260.685 29.6204 262.107 30.9914 263.097 32.6581L256.744 36.0768C256.466 35.4278 256.002 34.875 255.41 34.4873C254.819 34.0997 254.127 33.8945 253.42 33.897C252.129 33.897 251.334 34.3975 251.334 35.2834C251.344 38.109 263.554 36.2244 263.554 45.3917Z" fill="#3F3C3D"/>
<path d="M290.753 28.0522V52.8287H283.307V50.4987C282.447 51.5268 281.356 52.3369 280.123 52.8625C278.889 53.3881 277.551 53.6141 276.212 53.522C271.197 53.522 266.935 49.9556 266.935 43.261V28.0522H274.382V42.1723C274.319 42.7625 274.387 43.3591 274.58 43.9204C274.77 44.482 275.084 44.9951 275.495 45.4238C275.906 45.8525 276.405 46.1866 276.959 46.4031C277.51 46.6196 278.105 46.7132 278.699 46.6771C281.429 46.6771 283.314 45.093 283.314 41.5742V28.0598L290.753 28.0522Z" fill="#3F3C3D"/>
<path d="M333.45 37.6171V52.8283H326.004V38.2603C326.004 35.7826 324.813 34.1984 322.431 34.1984C319.949 34.1984 318.557 35.9328 318.557 38.8559V52.8283H311.114V38.2603C311.114 35.7826 309.923 34.1984 307.538 34.1984C305.056 34.1984 303.667 35.9328 303.667 38.8559V52.8283H296.221V28.0518H303.667V30.3293C304.44 29.319 305.452 28.5176 306.613 27.9988C307.777 27.4797 309.05 27.2598 310.319 27.3586C311.592 27.2963 312.861 27.5648 314.002 28.1377C315.14 28.7103 316.11 29.5682 316.82 30.6271C317.645 29.5192 318.738 28.6382 319.996 28.0666C321.255 27.495 322.639 27.2515 324.018 27.3586C329.717 27.3611 333.45 31.4229 333.45 37.6171Z" fill="#3F3C3D"/>
<path d="M339.748 27.899C342.799 27.899 345.274 25.4293 345.274 22.3831C345.274 19.3367 342.799 16.8672 339.748 16.8672C336.697 16.8672 334.222 19.3367 334.222 22.3831C334.222 25.4293 336.697 27.899 339.748 27.899Z" fill="#3F3C3D"/>
</svg>
